<?xml version="1.0" standalone="no"?>
<!DOCTYPE svg PUBLIC "-//W3C//DTD SVG 20010904//EN"
 "http://www.w3.org/TR/2001/REC-SVG-20010904/DTD/svg10.dtd">
<svg version="1.0" xmlns="http://www.w3.org/2000/svg"
 width="553.000000pt" height="633.000000pt" viewBox="0 0 553.000000 633.000000"
 preserveAspectRatio="xMidYMid meet">

<g transform="translate(0.000000,633.000000) scale(0.100000,-0.100000)"
fill="#000000" stroke="none">
<path d="M1631 5090 c-789 -408 -1441 -746 -1448 -752 -7 -6 -13 -22 -13 -37
0 -14 72 -165 159 -335 l160 -309 -27 -21 c-68 -53 -164 -140 -169 -152 -3 -8
3 -26 13 -42 23 -36 209 -269 542 -680 l273 -337 136 -265 c74 -146 180 -348
234 -450 54 -102 235 -450 402 -775 242 -468 310 -592 329 -599 19 -7 60 10
230 95 207 102 207 102 225 82 10 -12 76 -91 146 -177 132 -161 161 -183 195
-154 43 38 1288 1047 1537 1247 154 124 300 236 325 249 270 147 278 153 265
204 -5 21 10 37 124 132 100 82 131 113 131 131 0 28 41 -24 -586 746 -279
343 -517 640 -529 659 -13 19 -280 535 -594 1145 -315 611 -579 1116 -588
1123 -9 6 -22 12 -27 12 -6 0 -656 -333 -1445 -740z m1895 -271 c255 -492 463
-898 463 -902 1 -5 -20 17 -46 50 -26 32 -213 261 -415 510 -202 249 -368 454
-368 457 0 3 14 12 30 21 32 17 41 51 15 61 -8 3 -31 -4 -51 -17 -33 -20 -37
-21 -46 -6 -5 9 -27 38 -49 64 -23 25 -104 124 -181 220 -106 131 -146 173
-163 173 -15 0 -210 -153 -566 -443 -299 -243 -615 -500 -701 -570 l-157 -127
-42 80 c-30 58 -48 82 -65 86 -17 4 -91 -29 -291 -131 -147 -76 -276 -144
-285 -153 -10 -8 -18 -24 -18 -34 0 -11 32 -82 71 -160 60 -118 69 -142 58
-153 -8 -8 -45 -38 -83 -69 -63 -49 -71 -53 -81 -38 -7 9 -73 136 -147 282
l-136 265 1086 560 c597 308 1221 631 1386 717 166 86 305 155 310 154 5 -1
218 -405 472 -897z m-693 370 c65 -79 144 -176 175 -216 31 -40 282 -348 557
-685 275 -337 583 -716 684 -843 101 -126 210 -259 241 -295 61 -70 791 -967
803 -987 5 -7 -46 -55 -140 -130 -273 -220 -576 -466 -798 -647 -649 -532
-1351 -1099 -1362 -1100 -6 -1 -83 87 -170 195 -163 201 -1494 1840 -1777
2188 -88 108 -266 327 -396 486 -130 160 -239 295 -243 301 -4 7 39 49 111
107 64 52 290 236 502 408 212 173 672 547 1022 832 351 285 640 523 644 528
3 6 11 8 17 6 7 -2 65 -68 130 -148z m-1647 -880 l29 -61 -27 -22 c-14 -11
-105 -85 -201 -163 l-175 -143 -35 63 c-58 105 -79 149 -72 155 8 8 438 231
446 232 3 0 18 -27 35 -61z m350 -2394 c49 -60 306 -377 572 -703 266 -327
482 -595 480 -597 -19 -17 -328 -178 -333 -173 -6 7 -334 647 -497 968 -96
190 -208 408 -248 485 -40 77 -71 138 -68 135 3 -3 45 -54 94 -115z"/>
<path d="M2644 4458 c-181 -143 -332 -266 -336 -272 -4 -6 -6 -15 -5 -21 11
-34 59 -2 362 240 176 141 326 262 334 270 12 11 12 17 1 29 -7 9 -16 16 -20
16 -4 0 -156 -118 -336 -262z"/>
<path d="M2586 4499 c-147 -117 -265 -217 -263 -223 2 -6 10 -12 18 -14 18 -3
534 409 534 427 0 8 -5 16 -11 18 -6 2 -131 -92 -278 -208z"/>
<path d="M2187 3905 c-17 -12 -16 -17 18 -84 19 -39 33 -71 30 -71 -2 0 -33
17 -68 39 -54 33 -66 37 -81 26 -19 -14 -14 -18 111 -86 55 -29 65 -32 77 -19
13 13 10 27 -27 112 -39 88 -44 95 -60 83z"/>
<path d="M1054 3719 c-285 -229 -344 -281 -344 -299 0 -20 431 -555 455 -564
9 -3 26 -1 37 5 46 25 457 366 465 386 3 8 2 23 -3 33 -14 29 -413 518 -437
535 -12 8 -24 15 -28 15 -4 0 -69 -50 -145 -111z m340 -244 c93 -114 165 -210
160 -215 -22 -21 -368 -299 -370 -297 -1 1 -83 103 -183 226 -167 205 -181
224 -164 236 10 7 95 76 188 153 158 129 171 138 185 122 8 -10 91 -111 184
-225z"/>
<path d="M2003 3740 c-13 -11 -26 -32 -29 -46 -9 -33 36 -99 82 -122 32 -15
38 -15 62 -1 37 20 57 59 48 93 -5 22 -10 26 -21 16 -8 -6 -15 -26 -17 -43 -2
-26 -8 -33 -29 -35 -19 -2 -34 6 -58 33 -48 55 -37 97 25 92 20 -1 29 3 29 13
0 25 -66 25 -92 0z"/>
<path d="M3126 3479 c-10 -6 -188 -146 -395 -311 -207 -165 -453 -361 -548
-436 -171 -136 -198 -167 -173 -197 27 -32 58 -15 261 147 112 89 359 286 549
437 190 151 351 281 358 289 18 23 15 60 -7 72 -23 12 -21 12 -45 -1z"/>
<path d="M2894 2853 c-254 -203 -504 -402 -557 -443 -107 -83 -125 -112 -88
-141 20 -17 26 -17 49 -5 15 8 272 211 572 450 519 415 545 437 545 468 0 29
-3 33 -30 36 -26 2 -91 -46 -491 -365z"/>
<path d="M3584 2873 c-27 -21 -241 -191 -475 -378 -234 -187 -466 -371 -514
-410 -101 -80 -115 -97 -99 -122 30 -49 39 -43 581 389 285 227 537 428 560
446 51 40 61 66 37 93 -24 26 -34 24 -90 -18z"/>
<path d="M3301 2156 c-305 -244 -558 -451 -563 -460 -14 -25 8 -56 40 -56 20
0 160 107 581 443 305 244 559 451 565 460 16 25 -4 52 -40 54 -25 2 -115 -67
-583 -441z"/>
<path d="M1654 2512 c-38 -32 -70 -67 -72 -77 -1 -12 15 -41 39 -70 103 -126
106 -127 188 -58 70 58 81 72 81 97 0 33 -116 166 -144 166 -13 0 -51 -24 -92
-58z m112 -78 c16 -24 16 -26 -4 -47 l-22 -21 -28 27 -27 28 24 20 c30 25 37
24 57 -7z"/>
<path d="M4595 2302 c-369 -291 -514 -413 -509 -427 4 -8 14 -15 23 -15 12 1
573 440 625 490 9 9 -9 40 -23 40 -3 -1 -56 -40 -116 -88z"/>
<path d="M4769 2273 c-48 -34 -574 -456 -587 -471 -10 -13 -9 -19 3 -31 13
-13 16 -13 32 1 10 8 150 119 311 247 160 128 292 236 292 241 0 22 -27 29
-51 13z"/>
<path d="M1904 2217 c-92 -70 -93 -85 -17 -177 32 -39 68 -73 80 -76 16 -4 39
8 91 50 39 31 73 63 76 71 8 23 -3 45 -62 118 -38 47 -61 67 -77 67 -13 0 -54
-24 -91 -53z m110 -84 c19 -26 19 -26 -5 -44 -30 -23 -30 -23 -52 7 -18 24
-18 26 -1 45 23 25 35 24 58 -8z"/>
<path d="M2225 1937 c-12 -7 -47 -32 -78 -56 -76 -58 -76 -75 4 -169 43 -51
68 -72 84 -72 25 0 138 88 156 121 12 22 2 43 -49 109 -64 81 -79 90 -117 67z
m45 -122 c23 -24 23 -25 5 -45 -24 -27 -39 -25 -60 6 -16 24 -16 27 1 45 22
24 26 24 54 -6z"/>
<path d="M2398 1608 c-67 -56 -78 -67 -78 -84 0 -16 117 -161 136 -168 21 -8
48 7 117 66 39 34 57 57 57 73 0 13 -24 54 -56 94 -72 90 -88 92 -176 19z
m109 -77 l22 -28 -25 -24 -25 -23 -24 29 -23 30 21 23 c26 27 27 27 54 -7z"/>
<path d="M1858 1245 c6 -11 21 -29 34 -40 22 -19 22 -19 -2 10 -40 48 -43 51
-32 30z"/>
<path d="M1992 1078 c46 -57 123 -151 172 -210 48 -60 90 -108 93 -108 2 0
-35 48 -83 108 -49 59 -126 153 -172 210 -46 56 -86 102 -89 102 -2 0 33 -46
79 -102z"/>
<path d="M2275 730 c10 -11 20 -20 23 -20 3 0 -3 9 -13 20 -10 11 -20 20 -23
20 -3 0 3 -9 13 -20z"/>
<path d="M2300 696 c0 -2 8 -10 18 -17 15 -13 16 -12 3 4 -13 16 -21 21 -21
13z"/>
</g>
</svg>
