<?xml version="1.0" standalone="no"?>
<!DOCTYPE svg PUBLIC "-//W3C//DTD SVG 20010904//EN"
 "http://www.w3.org/TR/2001/REC-SVG-20010904/DTD/svg10.dtd">
<svg version="1.0" xmlns="http://www.w3.org/2000/svg"
 width="245.000000pt" height="206.000000pt" viewBox="0 0 245.000000 206.000000"
 preserveAspectRatio="xMidYMid meet">

<g transform="translate(0.000000,206.000000) scale(0.100000,-0.100000)"
fill="#000000" stroke="none">
<path d="M1600 1846 c-112 -31 -242 -129 -297 -223 l-25 -43 -532 0 c-583 0
-559 2 -591 -60 -13 -25 -15 -104 -15 -524 l0 -495 -52 -3 -53 -3 -3 -78 c-4
-97 19 -145 88 -185 l45 -27 763 -3 c517 -2 776 1 803 8 91 25 142 107 137
220 l-3 65 -55 5 -55 5 -3 176 -2 176 55 10 55 10 146 -241 c81 -133 158 -253
172 -268 32 -35 83 -52 128 -43 78 14 139 108 115 178 -6 17 -77 139 -158 271
-80 133 -148 244 -150 248 -2 5 7 23 20 40 66 88 97 185 97 304 0 220 -139
410 -349 474 -73 23 -209 26 -281 6z m312 -103 c167 -78 268 -266 238 -442
-42 -255 -295 -416 -537 -343 -127 39 -238 144 -280 265 -27 78 -24 215 6 290
30 76 92 153 161 198 86 57 130 69 245 66 88 -2 108 -6 167 -34z m-666 -255
c-28 -101 -13 -243 37 -347 63 -129 214 -246 348 -269 l44 -8 3 -182 2 -182
-278 0 -278 0 -34 -35 c-34 -35 -35 -35 -120 -35 -85 0 -86 0 -120 35 l-34 35
-300 2 -301 3 -3 483 c-1 322 1 489 8 502 10 19 25 20 522 20 l510 0 -6 -22z
m958 -767 c75 -123 139 -234 142 -247 4 -16 -1 -30 -20 -48 -27 -28 -46 -32
-76 -16 -25 13 -317 493 -303 497 7 3 31 17 55 33 33 23 46 26 54 17 6 -7 73
-113 148 -236z m-1384 -326 l34 -35 116 0 116 0 34 35 34 35 324 0 325 0 -6
-42 c-7 -53 -35 -90 -78 -105 -45 -16 -1475 -18 -1531 -3 -51 15 -88 61 -88
111 l0 39 343 0 343 0 34 -35z"/>
<path d="M1655 1683 c-44 -11 -57 -39 -31 -66 11 -11 32 -13 85 -9 93 6 144
-13 205 -78 57 -61 61 -63 86 -50 63 34 -45 157 -170 194 -51 15 -132 19 -175
9z"/>
</g>
</svg>
